<?xml version="1.0"?>
<svg version="1.1" id="Layer_1" xmlns="http://www.w3.org/2000/svg" x="0" y="0" viewBox="0 0 100 100" xml:space="preserve"><path fill="#80aedd" d="M5 21.875h90v18.75H5z"/><path fill="#80aedd" d="M5 59.376h90v18.749H5z"/><path fill="#fff" d="M5 40.625h90v18.75H5z"/><path d="M57.666 50.034c.015 0 .084-.007.084-.034-.02-.026-.063-.033-.082-.033L53.23 49.8a2.927 2.927 0 0 0-.021-.21c.237-.054.458-.128.671-.208.408-.152.786-.294 1.283-.251.68.066 1.138-.196 1.478-.384.131-.072.244-.135.349-.169a.765.765 0 0 1 .529.024.532.532 0 0 0 .079.023c-.007-.003-.014-.019-.034-.04-.072-.075-.3-.187-.667-.131a1.521 1.521 0 0 0-.442.152c-.295.137-.63.29-1.407.229-.563-.047-.912.069-1.249.179-.209.069-.427.12-.671.147a3.089 3.089 0 0 0-.066-.213l4.034-1.851c.014-.006.075-.039.065-.063-.01-.022-.071-.006-.089 0l-4.162 1.543a3.02 3.02 0 0 0-.101-.186c.198-.14.374-.293.54-.447.319-.296.62-.577 1.089-.723.645-.202.976-.616 1.217-.918.094-.118.175-.22.259-.292.188-.161.374-.173.498-.181.028-.002.065-.004.082-.009-.008-.001-.02-.013-.047-.024-.095-.042-.344-.06-.666.134-.147.087-.241.191-.352.31-.219.239-.468.51-1.212.75-.537.173-.815.412-1.085.644a3.348 3.348 0 0 1-.564.393 2.909 2.909 0 0 0-.141-.171l3.018-3.254c.011-.011.055-.064.036-.083-.017-.021-.069.021-.082.034l-3.255 3.02a3.012 3.012 0 0 0-.164-.135c.13-.205.234-.414.328-.62.181-.396.353-.77.729-1.084.52-.434.666-.943.773-1.316.041-.144.077-.268.127-.367a.764.764 0 0 1 .391-.357c.025-.013.06-.03.073-.041-.01.003-.022-.003-.054-.004h-.002c-.105 0-.339.08-.563.379-.102.137-.149.268-.204.42-.111.305-.237.65-.834 1.158-.43.365-.595.692-.755 1.009a3.242 3.242 0 0 1-.359.586 3.207 3.207 0 0 0-.208-.113l1.543-4.16c.008-.019.024-.081.002-.09-.006-.002-.015-.006-.035.018-.018.02-.028.045-.028.045l-1.853 4.036a3.626 3.626 0 0 0-.202-.063c.041-.238.057-.471.066-.696.016-.436.031-.848.259-1.282.313-.599.254-1.126.211-1.511a2.214 2.214 0 0 1-.023-.388.772.772 0 0 1 .225-.479.49.49 0 0 0 .053-.065c-.007.005-.023.005-.051.016-.097.038-.285.201-.377.566a1.54 1.54 0 0 0-.028.467c.015.324.03.691-.326 1.388-.258.502-.285.869-.313 1.223-.017.22-.053.442-.122.678a2.686 2.686 0 0 0-.22-.022l-.166-4.436c0-.015-.007-.084-.034-.084-.024 0-.033.064-.033.082l-.17 4.438a2.954 2.954 0 0 0-.211.021 5.296 5.296 0 0 0-.206-.67c-.152-.409-.296-.795-.252-1.285.061-.672-.195-1.136-.383-1.475-.072-.132-.136-.246-.17-.351a.77.77 0 0 1 .023-.529.532.532 0 0 0 .023-.079c-.005.007-.02.014-.04.034-.075.073-.187.295-.132.667.025.168.084.295.152.442.138.294.293.627.229 1.408-.045.563.069.911.18 1.248.068.209.118.429.145.672a3.002 3.002 0 0 0-.21.065l-1.852-4.034c-.006-.014-.033-.071-.063-.065-.025.011-.004.079 0 .089l1.544 4.162a3.02 3.02 0 0 0-.186.101 5.13 5.13 0 0 0-.446-.539c-.297-.319-.577-.621-.724-1.09-.202-.645-.617-.976-.92-1.218-.117-.093-.219-.174-.291-.257-.16-.188-.172-.375-.18-.498a.523.523 0 0 0-.01-.083c-.001.008-.013.02-.024.047-.041.096-.059.344.135.667.088.146.19.241.31.35.24.219.511.467.752 1.213.173.537.412.815.644 1.084.143.167.274.349.392.564a2.909 2.909 0 0 0-.171.141l-3.255-3.018c-.011-.01-.06-.055-.083-.036-.005.033.021.068.034.081l3.02 3.256a3.012 3.012 0 0 0-.135.164 5.449 5.449 0 0 0-.619-.328c-.396-.181-.771-.353-1.085-.729-.434-.519-.943-.666-1.315-.773-.144-.042-.268-.077-.366-.127a.782.782 0 0 1-.358-.391c-.012-.025-.028-.059-.039-.072.002.008-.004.023-.005.052-.002.104.075.34.379.565.137.102.269.15.421.205.305.111.65.237 1.158.833.365.43.692.595 1.009.755.2.101.392.204.586.359-.04.068-.078.137-.113.208l-4.16-1.543c-.014-.005-.079-.025-.091-.001-.01.024.052.057.063.062l4.036 1.853a3.413 3.413 0 0 0-.063.203 5.338 5.338 0 0 0-.697-.066c-.436-.016-.847-.031-1.282-.259-.598-.313-1.124-.254-1.51-.211-.148.016-.275.03-.388.023a.767.767 0 0 1-.479-.224.564.564 0 0 0-.065-.052c.005.006.006.023.017.05.038.096.2.284.566.376.165.042.305.037.467.028.323-.014.689-.03 1.388.327.503.257.868.285 1.222.312.221.017.443.053.679.122a2.71 2.71 0 0 0-.022.221l-4.436.167c-.015 0-.084.007-.084.034.02.026.063.033.082.033l4.435.169c.004.072.012.142.021.212a5.215 5.215 0 0 0-.672.205c-.407.152-.786.294-1.283.251-.678-.063-1.138.197-1.478.384-.131.072-.244.135-.349.169a.782.782 0 0 1-.529-.024.532.532 0 0 0-.079-.023c.007.003.014.019.034.04.072.074.298.185.667.131.169-.025.296-.084.442-.152.295-.137.626-.293 1.407-.229.564.05.912-.069 1.249-.179.209-.069.429-.116.672-.144.019.071.041.14.065.209l-4.034 1.852c-.014.006-.075.039-.065.063.011.022.07.006.089 0l4.162-1.543c.031.064.066.125.101.186-.198.14-.374.293-.54.447-.319.296-.62.577-1.089.723-.645.202-.976.616-1.217.918-.094.118-.175.22-.259.292-.188.161-.374.173-.498.181-.028.002-.065.004-.082.009.008.001.02.013.047.024.096.042.345.059.666-.134.147-.087.241-.191.352-.31.219-.239.468-.51 1.212-.75.537-.173.815-.412 1.085-.644.167-.143.349-.274.564-.393.045.059.092.116.141.171l-3.018 3.254c-.011.011-.055.064-.036.083.015.017.068-.022.082-.034l3.255-3.02c.053.047.108.092.164.135-.13.205-.234.414-.328.62-.181.396-.353.77-.729 1.084-.52.434-.666.943-.773 1.316a2.157 2.157 0 0 1-.127.367.764.764 0 0 1-.391.357c-.025.013-.06.03-.073.041.012-.001.023.004.054.004h.002c.105 0 .339-.08.563-.379.102-.137.149-.268.204-.42.111-.305.237-.65.834-1.158.43-.365.595-.692.755-1.009.101-.199.204-.392.359-.586.068.04.137.078.208.113l-1.543 4.16c-.008.019-.024.081-.002.09.005 0 .014.005.035-.018.018-.02.028-.045.028-.045l1.853-4.036c.067.023.134.044.202.063a5.323 5.323 0 0 0-.066.696c-.016.436-.031.848-.259 1.282-.313.599-.254 1.126-.211 1.511.017.149.031.278.023.388a.772.772 0 0 1-.225.479.49.49 0 0 0-.053.065c.007-.005.023-.005.051-.016.097-.038.285-.201.377-.566a1.54 1.54 0 0 0 .028-.467c-.015-.324-.03-.691.326-1.388.258-.502.285-.869.313-1.223.017-.22.053-.442.122-.678.073.01.146.018.22.022l.166 4.436c0 .015.007.084.034.084.024 0 .033-.064.033-.082l.171-4.437c.071-.004.141-.012.211-.021.054.236.127.458.206.67.152.409.296.795.252 1.285-.061.672.195 1.136.383 1.475.072.132.136.246.17.351a.77.77 0 0 1-.023.529.532.532 0 0 0-.023.079c.005-.007.02-.014.04-.034.075-.073.187-.295.132-.667-.025-.168-.084-.295-.152-.442-.138-.294-.293-.627-.229-1.408.045-.563-.069-.911-.18-1.248a3.34 3.34 0 0 1-.145-.672c.071-.019.141-.041.21-.065l1.852 4.034c.007.014.042.075.063.065.025-.011.004-.079 0-.089l-1.544-4.162a3.02 3.02 0 0 0 .186-.101c.14.198.292.374.446.539.297.319.577.621.724 1.09.202.645.617.976.92 1.218.117.093.219.174.291.257.16.188.172.375.18.498a.523.523 0 0 0 .01.083c.001-.008.013-.02.024-.047.041-.096.059-.344-.135-.667a1.512 1.512 0 0 0-.31-.35c-.24-.219-.511-.467-.752-1.213-.173-.537-.412-.815-.644-1.084a3.288 3.288 0 0 1-.392-.564c.059-.045.116-.092.171-.141l3.255 3.018c.011.011.063.056.083.036.005-.033-.021-.068-.034-.081l-3.02-3.256c.047-.053.092-.108.135-.164.205.129.414.233.619.328.396.181.771.353 1.085.729.434.519.943.666 1.315.773.144.042.268.077.366.127a.782.782 0 0 1 .358.391c.012.025.028.059.039.072-.002-.008.004-.023.005-.052.002-.104-.075-.34-.379-.565a1.506 1.506 0 0 0-.421-.205c-.305-.111-.65-.237-1.158-.833-.365-.43-.692-.595-1.009-.755a3.208 3.208 0 0 1-.586-.359c.04-.068.078-.137.113-.208l4.16 1.543c.015.006.081.026.091.001.01-.024-.052-.057-.063-.062l-4.036-1.853c.023-.067.044-.134.063-.203.239.041.471.057.697.066.436.016.847.031 1.282.259.596.312 1.122.253 1.51.211.147-.017.274-.03.388-.023a.767.767 0 0 1 .479.224c.021.019.05.043.065.052-.005-.006-.006-.023-.017-.05-.038-.096-.2-.284-.566-.376a1.471 1.471 0 0 0-.467-.028c-.325.011-.69.03-1.388-.327-.503-.257-.868-.285-1.222-.312a3.276 3.276 0 0 1-.679-.122 2.71 2.71 0 0 0 .022-.221l4.439-.169zm-2.392-.03l-2.032.074c.001-.027.008-.051.008-.078 0-.024-.007-.046-.007-.07l2.031.074zM55.144 49c-.778-.095-1.227.291-1.949.45-.009-.051-.014-.102-.025-.152.826-.096 1.34-.513 1.974-.298zm-.27-1.015l-1.849.846c-.018-.046-.033-.093-.053-.139l1.902-.707zm-.504-.877c-.755.21-1.022.738-1.628 1.161-.028-.044-.054-.089-.084-.132.726-.405 1.043-.985 1.712-1.029zm-.638-.834l-1.384 1.489a2.575 2.575 0 0 0-.104-.105l1.488-1.384zm-.802-.618c-.617.482-.662 1.071-1.059 1.694a2.956 2.956 0 0 0-.131-.086c.518-.653.589-1.312 1.19-1.608zm-.908-.527l-.708 1.903c-.045-.02-.092-.036-.138-.054l.846-1.849zm-.977-.264c-.385.681-.201 1.243-.33 1.97-.05-.011-.101-.019-.152-.028.229-.803.039-1.438.482-1.942zm-1.041-.139l.074 2.032c-.026-.001-.051-.008-.078-.008-.024 0-.046.007-.07.007l.074-2.031zm-1.004.13c-.095.778.291 1.227.45 1.949-.051.009-.102.014-.152.025-.096-.826-.513-1.34-.298-1.974zm-1.015.27l.846 1.849c-.046.018-.093.033-.139.053l-.707-1.902zm-.877.504c.21.755.738 1.022 1.161 1.628-.044.028-.089.054-.132.084-.405-.726-.985-1.043-1.029-1.712zm-.834.638l1.489 1.384a2.575 2.575 0 0 0-.105.104l-1.384-1.488zm-.618.802c.482.617 1.072.662 1.694 1.059-.03.043-.058.086-.086.131-.653-.518-1.312-.589-1.608-1.19zm-.527.908l1.903.708c-.02.045-.036.092-.054.138l-1.849-.846zm-.264.977c.681.385 1.243.201 1.97.33-.011.05-.019.101-.028.152-.803-.229-1.438-.039-1.942-.482zm-.139 1.041l2.032-.074c-.001.026-.008.051-.008.078 0 .024.007.046.007.07l-2.031-.074zm.13 1.004c.778.095 1.227-.291 1.949-.45.009.051.014.102.025.152-.826.096-1.34.513-1.974.298zm.27 1.015l1.849-.846c.018.046.033.094.053.139l-1.902.707zm.504.877c.755-.21 1.022-.738 1.628-1.161.028.044.054.089.084.132-.726.405-1.043.985-1.712 1.029zm.638.834l1.384-1.489c.034.036.069.071.104.105l-1.488 1.384zm.802.618c.617-.482.662-1.071 1.059-1.694.043.03.086.058.131.086-.518.653-.589 1.312-1.19 1.608zm.908.527l.708-1.903c.045.02.092.036.138.054l-.846 1.849zm.977.264c.385-.681.201-1.243.33-1.97.05.011.101.019.152.028-.229.803-.039 1.438-.482 1.942zm1.041.139l-.074-2.032c.027.001.051.008.078.008.024 0 .046-.007.07-.007l-.074 2.031zm1.004-.13c.095-.778-.291-1.226-.45-1.949.051-.009.102-.014.152-.025.096.826.513 1.34.298 1.974zm1.015-.27l-.846-1.849c.046-.018.093-.033.139-.053l.707 1.902zm.877-.504c-.21-.755-.738-1.022-1.161-1.628.044-.028.089-.054.132-.084.405.726.985 1.043 1.029 1.712zm.834-.638l-1.489-1.384c.036-.034.071-.068.105-.104l1.384 1.488zm.618-.802c-.482-.617-1.071-.662-1.694-1.059.03-.043.058-.086.086-.131.653.518 1.312.589 1.608 1.19zm.527-.908l-1.903-.708c.02-.045.036-.092.054-.138l1.849.846zm.264-.977c-.681-.385-1.243-.201-1.97-.33.011-.05.019-.101.028-.152.803.229 1.438.039 1.942.482z" fill="#f5bb00"/><path d="M50.564 49.637c.008.006.019.009.028.015a.564.564 0 0 0 .095.052l.017.01c.021.009.036.022.058.029.023.007.051.006.075.011a.904.904 0 0 0 .13.019c.03.002.057.011.089.01a1.09 1.09 0 0 0 .275-.041c.016-.004.031-.007.046-.012.042-.013.078-.04.118-.058.04-.019.08-.034.117-.058.009-.006.02-.008.03-.015l.015-.007c-.033-.036-.078-.053-.117-.082a.803.803 0 0 0-.34-.149l-.016-.003c-.019-.003-.037-.01-.055-.012-.022-.002-.044-.014-.066-.014l-.008.002a.667.667 0 0 0-.392.156c-.032.026-.066.051-.093.085l-.008.007c-.003.005-.009.006-.012.011-.007.01-.019.013-.026.023.005.005.015.007.021.011.008.005.015.006.019.01zm.61-.245c.143.021.258.082.299.15.005.008.015.017.018.025-.016.018-.038.025-.055.04a.564.564 0 0 1-.082.059c-.039.023-.076.045-.117.058-.026.008-.052.012-.078.017.014-.008.032-.007.044-.018.018-.016.021-.04.033-.062l.005-.013c.007-.016.017-.03.02-.048.002-.013.014-.021.014-.034 0-.076-.046-.131-.105-.17-.005-.004-.012-.004-.018-.007l.022.003zm-.506.186c.015-.019.034-.031.051-.047a.481.481 0 0 1 .184-.113c-.013.014-.013.036-.022.053-.017.031-.039.058-.04.095 0 .007.007.011.008.018.002.017.013.029.019.045a.142.142 0 0 0 .008.018c.007.015.009.032.019.045.004.005.003.014.008.018.02.022.05.026.078.039-.041-.004-.081-.007-.121-.019-.022-.006-.043-.015-.064-.023-.02-.008-.037-.021-.056-.031-.023-.012-.047-.023-.068-.037-.014-.009-.031-.014-.044-.024.009-.016.027-.021.04-.037z" fill="#903410"/><path d="M49.326 49.469c-.051-.031-.098-.062-.153-.081a.793.793 0 0 0-.224-.047c-.014-.001-.028-.009-.042-.009-.015 0-.028.009-.042.01-.015.001-.029.008-.044.01-.009.001-.017.005-.026.006a.593.593 0 0 0-.312.155c-.035.032-.077.054-.105.096l-.005.005-.003.003c.027.024.069.037.103.056.035.02.066.044.107.059.037.013.078.017.118.025a.952.952 0 0 0 .229.023c.004 0 .006.004.01.004.008 0 .013-.008.02-.008.025-.002.05-.008.075-.011.042-.005.083-.008.124-.018.024-.006.046-.009.07-.017.017-.005.031-.017.048-.024l.011-.005a.92.92 0 0 0 .109-.054l.015-.007.003-.001c.013-.007.027-.011.039-.019s.026-.01.038-.019l.015-.007c-.008-.008-.02-.011-.028-.019-.017-.017-.039-.025-.057-.04a.793.793 0 0 0-.093-.066zm-.652.259c-.04-.013-.073-.038-.11-.059-.032-.018-.068-.03-.096-.053l.007-.007c.02-.031.049-.043.073-.067a.495.495 0 0 1 .26-.14.207.207 0 0 0-.089.164c0 .013.012.021.014.033.002.013.01.022.014.034.004.01.007.019.012.028.011.021.015.045.032.061.023.022.057.027.088.036a.621.621 0 0 1-.205-.03zm.644-.15c-.027.028-.059.043-.088.064l-.003.002c-.016.011-.031.025-.048.035-.015.009-.028.024-.044.031l-.008.004c-.016.007-.034.006-.051.011l.017-.013c.006-.006.005-.017.01-.024.009-.012.01-.027.017-.04a.229.229 0 0 0 .01-.023c.004-.014.015-.025.017-.04.001-.007.007-.011.007-.018 0-.006-.006-.009-.006-.015a.212.212 0 0 0-.039-.094.187.187 0 0 0-.067-.064.542.542 0 0 1 .225.092c.02.015.032.031.044.047.008.011.021.022.024.034-.007.005-.013.007-.017.011z" fill="#903410"/><path d="M57.834 49.9c-.056-.056-.151-.059-.163-.059h-.001l-4.293-.162c.19-.052.371-.116.546-.181.395-.147.771-.287 1.229-.244.713.061 1.196-.204 1.55-.399.125-.069.233-.129.327-.16.194-.063.342-.013.449.023.079.027.182.064.229-.033.022-.047.013-.105-.026-.158-.1-.138-.394-.258-.801-.199a1.642 1.642 0 0 0-.478.163c-.281.13-.602.28-1.345.218-.585-.046-.948.071-1.298.186-.2.066-.394.129-.624.157l4.01-1.841c.011-.004.101-.043.132-.118a.133.133 0 0 0-.001-.107.135.135 0 0 0-.075-.077c-.076-.032-.167.005-.174.008l-4.025 1.492c.155-.121.296-.248.433-.375.309-.287.6-.558 1.041-.696.682-.213 1.025-.644 1.277-.959.09-.113.168-.21.243-.274a.654.654 0 0 1 .424-.151c.086-.005.192-.012.198-.118.002-.031-.007-.089-.085-.136-.147-.089-.465-.088-.816.123a1.65 1.65 0 0 0-.379.333c-.209.228-.445.486-1.159.716-.561.181-.849.429-1.127.667-.16.137-.314.27-.516.383l2.999-3.234c.008-.008.076-.078.076-.159a.142.142 0 0 0-.042-.1.136.136 0 0 0-.099-.042c-.081 0-.151.068-.158.074l-3.147 2.919c.097-.17.179-.342.256-.511.176-.383.341-.744.695-1.041.549-.458.701-.989.813-1.377.04-.138.074-.257.118-.345.093-.183.232-.251.334-.302.077-.038.173-.085.139-.185-.018-.049-.064-.083-.13-.094-.167-.022-.462.097-.708.427-.113.151-.166.297-.223.452-.105.291-.225.62-.796 1.105-.449.382-.621.721-.787 1.048a3.12 3.12 0 0 1-.33.552l1.534-4.137c.004-.01.041-.101.01-.176a.141.141 0 0 0-.076-.076c-.061-.026-.127-.008-.177.051-.031.035-.048.075-.049.077l-1.791 3.902c.024-.194.034-.384.041-.57.016-.421.03-.819.245-1.229.331-.632.269-1.182.224-1.583-.016-.143-.03-.266-.022-.364.016-.205.119-.321.193-.407.057-.064.128-.145.058-.223-.034-.039-.092-.051-.156-.037-.167.041-.392.266-.491.665-.046.183-.039.338-.032.502.014.309.029.659-.313 1.326-.269.525-.298.903-.326 1.27-.016.209-.031.413-.093.635l-.166-4.408c0-.1-.05-.207-.159-.207a.144.144 0 0 0-.1.04c-.057.057-.059.155-.059.164l-.162 4.29a6.618 6.618 0 0 0-.18-.542c-.147-.396-.286-.769-.244-1.23.063-.71-.203-1.193-.398-1.546-.069-.126-.13-.235-.16-.33-.064-.195-.014-.342.022-.45.027-.081.063-.182-.032-.228-.027-.013-.086-.027-.159.026-.138.102-.259.396-.198.802.027.187.093.327.162.476.131.28.278.597.218 1.346-.047.587.071.948.186 1.297.066.2.13.394.157.624l-1.841-4.01c-.004-.01-.043-.1-.117-.131a.14.14 0 0 0-.108 0c-.101.042-.105.16-.068.25l1.492 4.024a6.95 6.95 0 0 0-.374-.432c-.286-.309-.558-.6-.695-1.042-.213-.682-.646-1.027-.961-1.278a2.071 2.071 0 0 1-.273-.241.65.65 0 0 1-.151-.424c-.005-.085-.012-.192-.117-.199h-.007c-.032 0-.086.013-.13.085-.089.146-.088.464.123.817.097.162.212.267.333.377.228.209.486.445.717 1.16.181.561.429.849.667 1.128.138.16.271.314.384.516l-3.235-3c-.069-.07-.181-.11-.258-.035a.14.14 0 0 0-.042.1c0 .081.068.151.074.157l2.92 3.148a6.62 6.62 0 0 0-.512-.257c-.384-.175-.745-.341-1.042-.696-.458-.549-.988-.702-1.376-.813-.138-.04-.257-.074-.345-.118-.184-.093-.252-.233-.303-.335-.038-.077-.086-.17-.184-.138-.05.017-.084.065-.094.131-.026.169.096.462.426.707.151.113.298.166.452.222.291.105.62.226 1.105.797.382.449.721.62 1.048.786.188.095.37.187.552.33l-4.136-1.534c-.095-.039-.211-.033-.252.067a.135.135 0 0 0-.001.108c.031.075.121.114.129.117l3.902 1.791a6.699 6.699 0 0 0-.571-.041c-.421-.016-.819-.03-1.229-.244-.633-.333-1.18-.27-1.582-.225-.143.016-.267.03-.364.022-.205-.015-.321-.118-.407-.193-.064-.057-.145-.127-.224-.057-.022.021-.058.068-.036.157.041.166.266.39.664.49.183.046.339.039.503.032.309-.011.657-.029 1.326.313.524.269.903.297 1.27.325.21.016.413.031.637.094l-4.409.166c-.1 0-.207.05-.207.159 0 .039.014.073.041.1.056.056.151.059.163.059h.001l4.293.162c-.19.052-.37.115-.546.181-.395.146-.773.29-1.229.244-.713-.064-1.196.204-1.55.399-.125.069-.233.129-.327.16-.193.065-.341.014-.449-.023-.08-.028-.184-.064-.229.033-.022.047-.013.105.026.158.1.139.394.259.801.199.188-.028.328-.093.478-.163.28-.131.601-.281 1.345-.218.587.05.949-.071 1.298-.186.2-.066.394-.129.624-.157l-4.01 1.841c-.011.004-.101.043-.132.118a.133.133 0 0 0 .001.107c.015.036.04.063.075.077a.182.182 0 0 0 .068.013.296.296 0 0 0 .105-.021l4.025-1.492a6.704 6.704 0 0 0-.433.375c-.309.287-.6.558-1.041.696-.682.213-1.025.644-1.277.959-.09.113-.168.21-.243.274a.654.654 0 0 1-.424.151c-.086.005-.192.012-.198.118-.002.031.007.089.085.136.147.089.466.088.816-.123a1.65 1.65 0 0 0 .379-.333c.209-.228.445-.486 1.159-.716.561-.181.849-.429 1.127-.667.16-.137.314-.27.516-.383l-2.999 3.234c-.008.008-.076.078-.076.159 0 .038.015.072.042.1a.136.136 0 0 0 .099.042c.081 0 .151-.068.158-.074l3.147-2.919c-.097.17-.179.342-.256.511-.176.383-.341.744-.695 1.041-.549.458-.701.989-.813 1.377-.04.138-.074.257-.118.345-.093.183-.232.251-.334.302-.077.038-.173.085-.139.185.018.049.064.083.13.094.167.024.462-.096.708-.427.113-.151.166-.297.223-.452.105-.291.225-.62.796-1.105.449-.382.621-.721.787-1.048a3.12 3.12 0 0 1 .33-.552L46.92 57.02c-.004.01-.041.101-.01.176a.141.141 0 0 0 .132.087.16.16 0 0 0 .121-.062c.031-.035.048-.075.049-.077l1.791-3.902a6.647 6.647 0 0 0-.041.57c-.016.421-.03.819-.245 1.229-.331.632-.269 1.182-.224 1.583.016.143.03.266.022.364-.016.205-.119.321-.193.407-.057.064-.128.145-.058.223.036.04.094.052.156.037.167-.041.392-.266.491-.665.046-.183.039-.338.032-.502-.014-.309-.029-.659.313-1.326.269-.525.298-.903.326-1.27.016-.209.031-.413.093-.635l.166 4.408c0 .1.05.207.159.207a.144.144 0 0 0 .1-.04c.057-.057.059-.155.059-.164l.162-4.29c.052.188.115.367.18.542.147.396.286.769.244 1.23-.063.71.203 1.193.398 1.546.069.126.13.235.16.33.064.195.014.342-.022.45-.027.081-.063.182.032.228a.127.127 0 0 0 .055.013.173.173 0 0 0 .104-.039c.138-.102.259-.396.198-.802-.027-.187-.093-.327-.162-.476-.131-.28-.278-.597-.218-1.346.047-.587-.071-.948-.186-1.297-.066-.2-.13-.394-.157-.624l1.841 4.01c.004.01.043.1.117.131a.14.14 0 0 0 .108 0c.101-.042.105-.16.068-.25L51.589 53c.12.154.248.295.374.432.286.309.558.6.695 1.042.213.682.646 1.027.961 1.278.112.089.21.167.273.241a.65.65 0 0 1 .151.424c.005.085.012.192.117.199h.007c.032 0 .086-.013.13-.085.089-.146.088-.464-.123-.817a1.617 1.617 0 0 0-.333-.377c-.228-.209-.486-.445-.717-1.16-.181-.561-.429-.849-.667-1.128-.138-.16-.271-.314-.384-.516l3.235 3c.07.071.182.112.258.035a.14.14 0 0 0 .042-.1c0-.081-.068-.151-.074-.157l-2.92-3.148c.171.097.342.179.512.257.384.175.745.341 1.042.696.458.549.988.702 1.376.813.138.04.257.074.345.118.184.093.252.233.303.335.032.065.07.145.144.145a.12.12 0 0 0 .04-.007c.05-.017.084-.065.094-.131.026-.169-.096-.462-.426-.707-.151-.113-.298-.166-.452-.222-.291-.105-.62-.226-1.105-.797-.382-.449-.721-.62-1.048-.786a3.12 3.12 0 0 1-.552-.33l4.136 1.534c.096.04.211.033.252-.067a.135.135 0 0 0 .001-.108c-.031-.075-.121-.114-.129-.117l-3.902-1.791c.195.024.385.034.571.041.421.016.819.03 1.229.244.633.332 1.181.271 1.582.225a2.18 2.18 0 0 1 .364-.022c.205.015.321.118.407.193.045.04.098.086.152.086a.104.104 0 0 0 .071-.029c.022-.021.058-.068.036-.157-.041-.166-.266-.39-.664-.49-.183-.046-.341-.039-.503-.032-.305.013-.656.029-1.326-.313-.524-.269-.903-.297-1.27-.325-.21-.016-.413-.031-.637-.094l4.409-.166c.1 0 .207-.05.207-.159a.128.128 0 0 0-.039-.1zm-4.036-.885c.337-.11.687-.226 1.249-.179.777.06 1.112-.093 1.407-.229.146-.068.273-.127.442-.152.367-.056.595.056.667.131.021.021.027.037.034.04a.5.5 0 0 1-.079-.023.765.765 0 0 0-.529-.024 2.317 2.317 0 0 0-.349.169c-.34.188-.798.45-1.478.384-.497-.043-.875.1-1.283.251a5.004 5.004 0 0 1-.711.22c-.006-.047-.006-.095-.014-.141.749-.152 1.196-.558 1.989-.461-.645-.219-1.164.218-2.016.304-.01-.046-.029-.088-.041-.133.263-.026.49-.084.712-.157zm3.273-1.98c.018-.006.079-.023.089 0 .01.025-.052.058-.065.063l-4.072 1.869c-.013-.039-.022-.079-.036-.117l1.887-.864-1.942.722c-.018-.04-.043-.076-.063-.115l4.202-1.558zm-3.939.601c.27-.231.548-.47 1.085-.644.744-.24.993-.511 1.212-.75.11-.119.204-.223.352-.31.322-.194.571-.176.666-.134.027.012.039.023.047.024a.705.705 0 0 1-.082.009c-.124.008-.311.02-.498.181-.084.072-.165.174-.259.292-.241.302-.572.716-1.217.918-.469.146-.77.427-1.089.723-.176.164-.36.328-.573.474-.023-.041-.042-.084-.067-.123.633-.427.891-.973 1.661-1.188-.68.045-.992.647-1.748 1.053-.027-.039-.061-.072-.09-.109.232-.125.423-.264.6-.416zm2.266-3.082c.013-.013.065-.055.082-.034.019.019-.025.073-.036.083l-3.047 3.285c-.027-.031-.05-.065-.078-.095l1.413-1.52-1.519 1.412c-.031-.03-.068-.054-.101-.083l3.286-3.048zm-3.409 2.064c.16-.317.325-.644.755-1.009.597-.508.723-.854.834-1.158.055-.152.103-.284.204-.42.224-.3.457-.379.563-.379h.002c.031.001.044.007.054.004-.014.011-.048.028-.073.041a.771.771 0 0 0-.391.357c-.05.099-.086.223-.127.367-.107.373-.254.882-.773 1.316-.376.314-.548.688-.729 1.084-.1.219-.207.441-.349.658-.037-.029-.07-.062-.109-.09.421-.637.451-1.239 1.08-1.731-.612.302-.669.979-1.213 1.643-.035-.023-.075-.039-.111-.06.171-.209.276-.412.383-.623zm.914-3.716s.011-.025.028-.045c.021-.024.029-.02.035-.018.022.01.006.072-.002.09l-1.557 4.2c-.037-.018-.07-.042-.108-.059l.723-1.942-.863 1.886c-.041-.016-.084-.025-.125-.039l1.869-4.073zm-2.36 3.212c.027-.354.055-.72.313-1.223.356-.697.341-1.064.326-1.388a1.54 1.54 0 0 1 .028-.467c.092-.366.28-.528.377-.566.027-.011.044-.011.051-.016a.565.565 0 0 1-.053.065.775.775 0 0 0-.225.479c-.008.11.007.239.023.388.043.385.103.912-.211 1.511-.228.435-.243.846-.259 1.282a5.036 5.036 0 0 1-.07.738c-.045-.013-.088-.031-.134-.042.144-.748-.058-1.316.334-2.011-.45.513-.244 1.16-.492 1.982-.046-.008-.095-.008-.141-.014.079-.252.115-.485.133-.718zm-.576-3.782c0-.018.009-.082.033-.082.027 0 .034.069.034.084l.168 4.477c-.041-.003-.081-.011-.122-.012l-.076-2.072-.076 2.072c-.044.001-.086.01-.13.013l.169-4.48zm-.952 3.87c-.11-.337-.225-.686-.18-1.248.063-.781-.092-1.114-.229-1.408a1.521 1.521 0 0 1-.152-.442c-.055-.373.057-.595.132-.667.021-.02.035-.027.04-.034-.003.018-.015.053-.023.079-.04.117-.101.294-.023.529.034.105.098.219.17.351.188.339.443.803.383 1.475-.044.49.1.876.252 1.285.083.225.164.457.218.71-.046.006-.094.006-.14.014-.152-.748-.558-1.196-.461-1.989-.219.645.218 1.163.304 2.016-.047.01-.09.03-.135.042a3.424 3.424 0 0 0-.156-.713zm-1.981-3.274c-.004-.01-.025-.078 0-.089.03-.006.058.051.063.065l1.869 4.072c-.039.013-.08.022-.118.037l-.864-1.887.722 1.941c-.04.018-.076.043-.115.063l-1.557-4.202zm.603 3.94c-.231-.269-.471-.547-.644-1.084-.241-.746-.512-.995-.752-1.213a1.535 1.535 0 0 1-.31-.35c-.193-.323-.176-.571-.135-.667.012-.027.023-.039.024-.047a.523.523 0 0 1 .01.083c.008.123.02.31.18.498.072.083.174.164.291.257.303.242.718.573.92 1.218.146.469.427.771.724 1.09.163.176.327.359.473.572-.041.023-.084.042-.123.067-.427-.633-.973-.891-1.188-1.661.045.68.647.992 1.053 1.748-.039.027-.072.061-.109.09a3.294 3.294 0 0 0-.414-.601zm-3.083-2.267c-.013-.013-.039-.048-.034-.081.023-.02.072.025.083.036l3.286 3.047c-.031.027-.065.05-.095.078l-1.52-1.413 1.412 1.519c-.03.031-.054.068-.083.101l-3.049-3.287zm2.063 3.41c-.316-.16-.644-.326-1.009-.755-.508-.597-.854-.723-1.158-.833a1.506 1.506 0 0 1-.421-.205c-.304-.225-.381-.461-.379-.565.001-.029.007-.044.005-.052a.509.509 0 0 1 .039.072c.052.104.138.279.358.391.099.05.223.085.366.127.372.107.882.254 1.315.773.314.377.688.548 1.085.729.218.1.44.207.657.348-.029.037-.062.07-.089.108-.637-.421-1.239-.451-1.732-1.08.302.612.979.669 1.643 1.213-.023.036-.039.075-.06.111a3.048 3.048 0 0 0-.62-.382zm-3.714-.915c-.012-.005-.073-.038-.063-.062.012-.024.077-.004.091.001l4.2 1.557c-.018.037-.042.07-.059.108l-1.942-.723 1.887.863c-.016.04-.025.084-.039.125l-4.075-1.869zm3.21 2.361c-.354-.027-.719-.054-1.222-.312-.698-.357-1.064-.341-1.388-.327a1.448 1.448 0 0 1-.467-.028c-.366-.092-.528-.28-.566-.376-.011-.027-.012-.044-.017-.05a.42.42 0 0 1 .065.052.77.77 0 0 0 .479.224c.112.007.239-.007.388-.023.386-.043.912-.102 1.51.211.436.228.847.243 1.282.259.24.009.486.023.739.07-.013.045-.031.088-.042.134-.748-.144-1.316.058-2.011-.335.513.45 1.16.244 1.982.492-.008.046-.008.094-.014.141a3.12 3.12 0 0 0-.718-.132zm-3.781.576c-.02 0-.063-.007-.082-.033 0-.027.069-.034.084-.034l4.477-.168c-.003.041-.011.081-.012.122l-2.073.076 2.072.076c.001.044.01.086.013.13l-4.479-.169zm3.87.952c-.337.11-.685.229-1.249.179-.781-.064-1.112.092-1.407.229a1.521 1.521 0 0 1-.442.152c-.369.054-.595-.057-.667-.131-.021-.021-.027-.037-.034-.04a.5.5 0 0 1 .079.023c.117.04.295.099.529.024.104-.035.218-.097.349-.169.34-.187.8-.447 1.478-.384.497.042.876-.1 1.283-.251.226-.084.458-.164.711-.217.006.046.006.093.014.138-.749.152-1.196.558-1.989.461.645.219 1.164-.218 2.016-.304.01.047.03.09.042.136a3.453 3.453 0 0 0-.713.154zm-3.273 1.98c-.019.007-.078.023-.089 0-.01-.025.052-.058.065-.063l4.072-1.869c.013.039.022.079.036.117l-1.887.864 1.942-.722c.018.04.043.076.063.115l-4.202 1.558zm3.939-.601c-.27.231-.548.47-1.085.644-.744.24-.993.511-1.212.75-.11.119-.204.223-.352.31-.321.193-.57.176-.666.134-.027-.012-.039-.023-.047-.024a.705.705 0 0 1 .082-.009c.124-.008.311-.02.498-.181.084-.072.165-.174.259-.292.241-.302.572-.716 1.217-.918.469-.146.77-.427 1.089-.723.176-.164.36-.328.573-.474.023.041.042.084.067.123-.633.427-.891.973-1.661 1.188.68-.045.992-.647 1.748-1.053.027.039.061.072.09.109a3.327 3.327 0 0 0-.6.416zm-2.266 3.082c-.014.012-.067.051-.082.034-.019-.019.025-.073.036-.083l3.047-3.285c.027.031.05.065.078.095l-1.413 1.52 1.519-1.412c.031.03.068.054.101.083l-3.286 3.048zm3.409-2.064c-.16.317-.325.644-.755 1.009-.597.508-.723.854-.834 1.158a1.511 1.511 0 0 1-.204.42c-.224.3-.457.379-.563.379h-.002c-.03 0-.042-.005-.054-.004.014-.011.048-.028.073-.041a.771.771 0 0 0 .391-.357c.05-.099.086-.223.127-.367.107-.373.254-.882.773-1.316.376-.314.548-.688.729-1.084.1-.219.207-.441.349-.658.037.029.07.062.109.09-.421.637-.451 1.239-1.08 1.731.612-.302.669-.979 1.213-1.643.036.023.075.039.111.06a3.215 3.215 0 0 0-.383.623zm-.914 3.716s-.011.025-.028.045c-.021.023-.03.018-.035.018-.022-.01-.006-.072.002-.09l1.557-4.2c.037.018.07.042.108.059l-.723 1.942.863-1.886c.041.016.084.025.125.039l-1.869 4.073zm2.36-3.212c-.027.354-.055.72-.313 1.223-.356.697-.341 1.064-.326 1.388a1.54 1.54 0 0 1-.028.467c-.092.366-.28.528-.377.566-.027.011-.044.011-.051.016a.565.565 0 0 1 .053-.065.775.775 0 0 0 .225-.479c.008-.11-.007-.239-.023-.388-.043-.385-.103-.912.211-1.511.228-.435.243-.846.259-1.282.009-.239.023-.484.07-.738.045.013.088.031.134.042-.144.748.058 1.316-.334 2.011.45-.513.244-1.16.492-1.982.046.008.095.008.141.014a3.152 3.152 0 0 0-.133.718zm.576 3.782c0 .018-.009.082-.033.082-.027 0-.034-.069-.034-.084l-.168-4.477c.041.003.081.011.122.012l.076 2.072.076-2.072c.044-.001.086-.01.13-.013l-.169 4.48zm.952-3.87c.11.337.225.686.18 1.248-.063.781.092 1.114.229 1.408.068.146.127.273.152.442.055.373-.057.595-.132.667-.021.02-.035.027-.04.034.003-.018.015-.053.023-.079.04-.117.101-.294.023-.529-.034-.105-.098-.219-.17-.351-.188-.339-.443-.803-.383-1.475.044-.49-.1-.876-.252-1.285a5.121 5.121 0 0 1-.218-.71c.046-.006.094-.006.14-.014.152.748.558 1.196.461 1.989.219-.645-.218-1.163-.304-2.015.047-.01.09-.03.135-.042.028.262.084.491.156.712zm1.981 3.274c.004.01.025.078 0 .089-.021.01-.057-.051-.063-.065l-1.869-4.072c.039-.013.08-.022.118-.037l.864 1.887-.722-1.941c.04-.018.076-.043.115-.063l1.557 4.202zm-.603-3.94c.231.269.471.547.644 1.084.241.746.512.995.752 1.213.119.109.222.204.31.35.193.323.176.571.135.667-.012.027-.023.039-.024.047a.523.523 0 0 1-.01-.083c-.008-.123-.02-.31-.18-.498-.072-.083-.174-.164-.291-.257-.303-.242-.718-.573-.92-1.218-.146-.469-.427-.771-.724-1.09a5.012 5.012 0 0 1-.473-.572c.041-.023.084-.042.123-.067.427.633.973.891 1.188 1.661-.045-.68-.647-.992-1.053-1.748.039-.027.072-.061.109-.09.124.233.263.424.414.601zm-.376-.849a.948.948 0 0 1-.049.04l-.024.02-.045.038c-.035.027-.066.058-.102.084a3.927 3.927 0 0 1-.15.101c-.041.026-.086.045-.128.069l-.03.016a.196.196 0 0 1-.025.013l-.031.017-.024.013-.031.017c-.039.02-.075.045-.116.063-.05.022-.102.04-.153.059-.038.015-.079.024-.118.037l-.06.019-.03.009-.057.018c-.042.012-.082.029-.126.039a2.516 2.516 0 0 1-.177.034c-.047.008-.097.009-.145.015l-.034.003-.028.003-.035.004-.028.003-.035.004c-.044.003-.086.012-.13.013-.026.001-.051.008-.078.008-.029 0-.057-.008-.086-.009-.042-.001-.081-.01-.122-.012l-.063-.006-.031-.003-.058-.006c-.044-.005-.088-.006-.131-.013-.06-.01-.12-.017-.178-.03-.048-.011-.092-.03-.139-.043l-.033-.01-.027-.008-.034-.01-.026-.008a.337.337 0 0 0-.034-.01c-.042-.014-.085-.023-.126-.039-.051-.02-.102-.038-.152-.061-.038-.017-.071-.04-.108-.059-.019-.009-.037-.02-.056-.03l-.028-.015-.056-.03c-.037-.021-.076-.038-.111-.061-.051-.032-.103-.063-.152-.098-.04-.028-.074-.063-.112-.092l-.027-.022-.022-.018-.027-.022-.021-.018-.027-.023c-.033-.029-.069-.053-.101-.083a2.514 2.514 0 0 1-.115-.116c-.028-.03-.052-.064-.079-.095a.948.948 0 0 1-.04-.049l-.02-.024-.038-.046c-.027-.035-.058-.066-.084-.102a3.927 3.927 0 0 1-.101-.15c-.026-.041-.046-.086-.069-.128l-.017-.03a.196.196 0 0 1-.013-.025l-.017-.031-.013-.024-.017-.031c-.02-.039-.045-.075-.063-.116-.022-.05-.04-.101-.059-.153-.015-.038-.023-.079-.037-.117l-.019-.06-.009-.03-.017-.056c-.012-.043-.029-.083-.039-.126a2.516 2.516 0 0 1-.034-.177c-.008-.047-.009-.096-.014-.143l-.004-.036-.003-.028-.004-.035-.003-.026-.004-.037c-.003-.044-.012-.086-.013-.13-.001-.026-.008-.051-.008-.078 0-.029.008-.057.009-.086.001-.042.01-.081.012-.122l.006-.063.003-.031.006-.059c.005-.043.006-.088.013-.131.01-.06.017-.12.03-.178.011-.048.03-.092.043-.139l.01-.034.008-.026.01-.034.008-.026.011-.034c.014-.041.023-.084.039-.125.02-.051.038-.102.061-.152.017-.038.04-.071.059-.108.009-.019.02-.037.03-.056l.015-.028.03-.056c.021-.037.038-.076.061-.111.032-.051.063-.103.098-.152.028-.04.063-.074.093-.112l.022-.027.018-.021.022-.027.018-.021.023-.028c.029-.033.053-.069.083-.101.038-.04.077-.078.116-.115.03-.028.064-.051.095-.078a.948.948 0 0 1 .049-.04l.024-.02.045-.037c.035-.027.066-.058.102-.084.049-.035.099-.068.15-.101.041-.026.086-.045.128-.069l.03-.016a.196.196 0 0 1 .025-.013l.031-.017.024-.013.031-.017c.039-.02.075-.045.115-.063.05-.022.102-.04.153-.059.038-.015.079-.024.118-.037l.06-.019.03-.009.057-.018c.042-.012.082-.029.126-.039.058-.014.117-.024.177-.034.047-.008.097-.009.145-.015l.034-.003.028-.003.035-.004.028-.003.035-.004c.044-.003.086-.012.13-.013.026-.001.051-.008.078-.008.029 0 .057.008.086.009.042.001.081.01.122.012l.063.006.031.003.058.006c.044.005.088.006.131.013.06.01.12.017.178.03.048.011.092.03.139.043l.033.01.027.008.034.01.026.008a.337.337 0 0 0 .034.01c.042.014.085.023.126.039.051.02.102.038.152.061.038.017.071.04.108.059.019.009.037.02.056.03l.028.015.056.03c.037.021.076.038.111.061.051.032.103.063.152.098.04.028.074.063.112.092l.027.022.022.018.027.022.021.018.027.023c.033.029.069.053.101.083.04.038.078.076.115.116.028.03.052.064.079.095a.948.948 0 0 1 .04.049l.02.024.038.046c.027.035.058.066.084.102.035.049.068.099.101.15.026.041.046.086.069.128l.017.03.013.025.017.031.013.024.017.031c.02.039.045.075.063.116.022.05.04.101.059.153.015.038.023.079.036.117l.019.06.009.03c.006.021.014.041.019.063.011.041.028.079.037.12.014.058.024.117.034.177.008.048.009.098.015.146l.003.033.003.028.004.035.003.027.004.036c.003.044.012.086.013.13.001.026.008.051.008.078 0 .029-.008.057-.009.086-.001.042-.01.081-.012.122l-.006.063-.003.031-.006.059c-.005.043-.006.088-.013.131-.01.06-.017.12-.03.178-.011.048-.03.092-.043.139l-.01.034-.008.026-.01.034-.008.026-.011.034c-.014.041-.023.084-.039.125-.02.051-.038.102-.061.152-.017.038-.04.071-.059.108-.009.019-.02.037-.03.056l-.015.028-.03.056c-.021.037-.038.076-.061.111-.032.051-.063.103-.098.152-.028.04-.063.074-.093.112l-.022.027-.018.021-.022.027-.018.021-.023.028c-.029.033-.053.069-.083.101-.038.04-.076.078-.116.115-.027.025-.062.049-.093.076zm3.459 3.116c.013.013.039.048.034.081-.02.02-.072-.024-.083-.036l-3.286-3.047c.031-.027.065-.05.095-.078l1.52 1.413-1.412-1.519c.03-.031.054-.068.083-.101l3.049 3.287zm-2.063-3.41c.316.16.644.326 1.009.755.508.597.854.723 1.158.833.152.055.284.103.421.205.304.225.381.461.379.565-.001.029-.007.044-.005.052a.509.509 0 0 1-.039-.072c-.052-.104-.138-.279-.358-.391-.099-.05-.223-.085-.366-.127-.372-.107-.882-.254-1.315-.773-.314-.377-.688-.548-1.085-.729-.218-.1-.44-.207-.657-.348.029-.037.062-.07.089-.108.637.421 1.239.451 1.732 1.08-.302-.612-.979-.669-1.643-1.213.023-.035.039-.075.06-.111.205.171.408.275.62.382zm3.714.915c.012.005.073.038.063.062-.01.025-.076.005-.091-.001l-4.2-1.557c.018-.037.042-.07.059-.108l1.942.723-1.887-.863c.016-.04.025-.084.039-.125l4.075 1.869zm-3.21-2.361c.354.027.719.054 1.222.312.697.357 1.063.338 1.388.327.164-.007.303-.013.467.028.366.092.528.28.566.376.011.027.012.044.017.05a.42.42 0 0 1-.065-.052.77.77 0 0 0-.479-.224 2.294 2.294 0 0 0-.388.023c-.388.042-.914.101-1.51-.211-.436-.228-.847-.243-1.282-.259a5.023 5.023 0 0 1-.739-.07c.013-.045.031-.088.042-.134.748.145 1.316-.058 2.011.335-.513-.45-1.16-.244-1.982-.492.008-.046.008-.094.014-.141.25.078.484.115.718.132zm3.779-.509l-4.477.168c.003-.041.011-.081.012-.122l2.073-.076-2.072-.076c-.001-.044-.01-.086-.013-.13l4.479.169c.02 0 .063.007.082.033 0 .027-.069.034-.084.034z" fill="#903410"/><path d="M51.805 49.526c-.017-.027-.052-.059-.089-.095a.869.869 0 0 0-.263-.173c-.038-.016-.082-.022-.125-.033-.023-.006-.048-.009-.073-.014l-.037-.007-.036-.007c-.028-.003-.049-.015-.078-.015l-.01.001c-.029 0-.048.004-.073.005a.745.745 0 0 0-.24.044l-.006.002-.021.013a.51.51 0 0 0-.086.053c-.03.022-.059.047-.092.075l-.003.002a.443.443 0 0 1-.147.085c-.007.003-.015.009-.021.011-.02.005-.028.009-.04.013-.008.002-.024.005-.029.009-.008.008-.004.023-.002.037.003.02.014.028.034.03l.004.001c.005 0 .006.007.012.004h.001a1.293 1.293 0 0 0 .153-.093l.049-.036.043-.032c.016-.012.026-.017.043-.032.014-.012.029-.011.043-.021a.514.514 0 0 1 .235-.089c.042-.004.084-.009.126-.009l.03-.002c.008 0 .013.004.021.004.027.001.047.011.072.014.025.003.049.009.072.014.022.005.047.006.068.013.128.042.23.1.308.162.04.031.08.064.107.087.033.028.053.04.066.039.001 0 .006.005.007.004.001 0-.003-.005-.002-.006.006-.006-.002-.028-.021-.058z" fill="#903410"/><path fill="#903410" d="M51.971 49.327h-.001z"/><path d="M51.797 49.13a1.255 1.255 0 0 0-.113-.098c-.019-.016-.039-.03-.059-.045-.015-.011-.03-.024-.045-.034-.005-.003-.009-.008-.014-.01l-.039-.025c-.02-.011-.04-.017-.06-.027a.97.97 0 0 0-.54-.11c-.022.002-.045-.001-.067.002l-.024.003-.048.012c-.026.005-.053.013-.079.02-.022.006-.045.009-.067.017-.026.009-.051.02-.076.03a1.288 1.288 0 0 0-.16.075c-.021.012-.04.027-.061.04-.021.013-.041.028-.061.042-.022.015-.045.029-.066.046-.009.007-.019.012-.027.019-.011.03-.016.061-.025.092l-.003.011-.016.06-.002.006c-.007.029-.018.058-.024.087l-.005.018v.007c-.005.028.004.057 0 .086v.045V49.894c.002.014.008.028.011.042l.003.009.003.009c.003.012.01.024.013.037.001.003.003.006.003.01l.003.009c.004.017.013.035.018.052l.004.012.006.017.001.003.011.033.022.063.013.036.002.006.001.003.001.003.003.007.002.005c.005.013.008.026.014.039l.005.015.001.002.002.006c.003.007.004.015.008.022l.007.019.004.01.004.011c.007.015.008.03.016.045.003.005.003.011.006.016l.001.002c.003.006.003.013.007.019.012-.012.029-.014.047-.023l.003-.001.006-.003c.015-.007.03-.02.04-.02-.009-.013-.011-.026-.02-.039-.004-.006-.005-.013-.01-.019-.003-.005-.004-.01-.008-.015l-.006-.012-.008-.015-.004-.009-.008-.016-.008-.016c-.008-.013-.013-.026-.02-.04l-.002-.004-.002-.005-.004-.008a.315.315 0 0 1-.013-.026l-.01-.021-.004-.008-.026-.051-.003-.006c-.008-.018-.021-.037-.027-.055-.005-.013-.015-.026-.019-.038l-.004-.007-.007-.014-.002-.004-.011-.029c-.003-.01.001-.019-.002-.029v-.006c-.004-.015 0-.029-.003-.044-.003-.017-.001-.033-.003-.05v-.007c-.004-.028-.004-.055-.005-.082l-.001-.012v-.006l-.002-.033-.002-.032-.002-.026v-.005-.008-.008l-.001-.009v-.003l-.001-.011v-.007c.001-.005-.002-.011-.001-.016.001-.007-.003-.015-.001-.023v-.001l.002-.005c.003-.014.015-.027.018-.041l.005-.012c.002-.009.009-.018.012-.027.005-.017.016-.032.022-.049.009-.024.021-.047.032-.071.015-.033.025-.067.044-.1.009-.015.011-.032.021-.047.011-.016.01-.034.022-.049.004-.004.011-.005.016-.009.018-.016.042-.02.061-.034l.002-.001a.862.862 0 0 1 .168-.094c.023-.01.041-.028.065-.036.029-.009.058-.014.088-.021.022-.005.046-.002.069-.005.022-.003.045-.003.068-.005a1.198 1.198 0 0 1 .497.064l.029.008c.013.005.025.006.038.011.021.008.042.009.063.018l.004.001c.025.011.049.024.073.036.047.023.091.061.137.089.082.05.166.092.244.159l.011.007-.008-.009a1.776 1.776 0 0 0-.163-.182z" fill="#903410"/><path d="M51.604 49.739c-.12.044-.227.076-.323.097a1.62 1.62 0 0 1-.107.019c-.039.005-.078.011-.113.013a.742.742 0 0 1-.236-.026l-.004-.001a.703.703 0 0 1-.049-.016c-.016-.006-.036-.009-.051-.016l-.013-.007c-.026-.013-.036-.019-.057-.031l-.075-.041-.038-.021-.017-.009-.004-.002c-.024-.014-.038-.017-.054-.022-.008-.003-.021-.011-.029-.011l-.001-.001c-.02 0-.026.011-.017.03l.003.007a.282.282 0 0 0 .018.019l.008.007c.012.012.021.022.042.038l.008.006c.013.01.036.024.053.035l.041.027.003.002c.013.008.018.013.033.021.007.004.017.005.024.009.019.01.042.016.063.025a.75.75 0 0 0 .185.052c.018.003.038.002.057.004.025.002.049.005.074.005.072-.001.147-.015.225-.034a.98.98 0 0 0 .366-.169l.015-.009c.016-.011.032-.015.048-.028-.028.013-.051.017-.078.028z" fill="#903410"/><path d="M49.879 50.717c-.015-.008-.038-.01-.05-.02h-.001l-.01-.004a.315.315 0 0 1-.045-.044c-.021-.025-.046-.052-.054-.068l-.004-.005c0 .003-.003.005-.003.007-.001.009-.008.015-.011.024a.138.138 0 0 1-.06.078.136.136 0 0 1-.062.025c-.003 0-.005.003-.008.003-.016 0-.026-.012-.04-.017l-.002-.001c-.021-.007-.042-.01-.057-.024-.015-.015-.019-.037-.026-.057-.003-.008-.008-.014-.009-.022-.002-.009-.01-.015-.01-.024 0-.008.011-.01.012-.018.003-.018.02-.026.028-.041.016-.029.021-.067.054-.079-.013.002-.02.015-.032.019a.208.208 0 0 0-.086.051c-.018.021-.023.048-.033.075-.008.023-.025.043-.025.07l.002.005c.001.023.017.038.024.058a.306.306 0 0 0 .011.027c.011.022.014.048.032.065.018.016.044.017.067.027.023.01.042.026.068.028.005 0 .008.006.014.006.008 0 .013-.01.021-.011.024-.003.04-.022.061-.032.021-.01.044-.015.061-.032.006-.006.017-.005.022-.012.003-.003.008-.002.01-.005.018.014.04.017.06.025.011.005.021.01.033.014l.004.002c.018.006.034.015.052.019a.485.485 0 0 0 .072.007l.01.001.029.003h.031l.007-.001c.019 0 .046-.004.072-.007.017-.002.03-.003.049-.008l.002-.001c.016-.004.031-.014.048-.02.022-.008.044-.014.064-.027.005-.003.012-.003.017-.007.001.002.004.001.005.003.015.02.042.018.061.032.02.013.039.026.062.032.01.003.017.013.027.014.008.001.012.011.021.011.019 0 .032-.016.05-.02a.195.195 0 0 0 .116-.07c.012-.015.015-.035.022-.053.004-.011.01-.02.013-.031.002-.01.01-.016.011-.027 0-.006.006-.009.006-.014 0-.022-.015-.038-.02-.057a.196.196 0 0 0-.074-.108c-.026-.019-.048-.042-.082-.049.056.02.091.075.093.134 0 .002.002.002.002.003 0 .022-.014.037-.023.055l-.002.004c-.01.019-.017.036-.034.049a.136.136 0 0 1-.07.029c-.003 0-.004.003-.007.003s-.005.003-.008.003c-.014 0-.023-.011-.036-.015-.022-.006-.046-.01-.062-.025a.15.15 0 0 1-.037-.078c-.002-.008-.009-.012-.009-.02-.001.003-.008.01-.01.013l-.003.003a.462.462 0 0 1-.057.071c-.015.016-.032.022-.052.037-.006.005-.017.005-.024.009l-.003.001c-.011.007-.025.009-.038.015l-.007.003-.036.014c-.025.007-.038.025-.068.026-.005 0-.006-.004-.011-.004-.003 0-.005-.003-.008-.003-.035-.004-.056-.021-.084-.033l-.029-.011c-.001.003-.003.002-.004.002z" fill="#903410"/><path d="M49.588 51.195l.009-.003c.021-.011.041-.014.062-.019l.013-.004c.017-.003.033-.01.049-.01a.372.372 0 0 1 .096.01l.029.009a.281.281 0 0 1 .031.01l.061.017c.02.006.04.012.057.012H50c.018 0 .04-.007.061-.013.019-.005.04-.01.061-.017a.4.4 0 0 1 .157-.027c.013 0 .026.007.04.009.007.001.015.005.022.007.021.006.041.007.062.019l.005.002c.132.076.221.143.311.195.025.014.05.033.076.044-.032-.021-.058-.046-.085-.069-.11-.093-.196-.194-.304-.25-.019-.01-.042-.012-.062-.018a.4.4 0 0 0-.062-.014l-.003-.001c-.014-.002-.025-.009-.04-.009a.391.391 0 0 0-.09.017l-.003.001c-.018.005-.038.014-.059.022a.87.87 0 0 0-.058.023L50 51.15h-.004l-.026-.01a.87.87 0 0 0-.058-.023c-.02-.007-.04-.017-.058-.022l-.011-.002a.4.4 0 0 0-.086-.016c-.015 0-.025.007-.039.009l-.007.002a.316.316 0 0 0-.055.013c-.02.006-.043.007-.062.017-.112.057-.2.165-.315.262-.024.02-.046.042-.074.061.023-.009.044-.026.066-.039.092-.058.181-.129.317-.207z" fill="#903410"/><path d="M50.717 51.433a2.046 2.046 0 0 0-.309-.069l-.012-.001c-.024-.003-.042-.002-.063-.003-.021-.001-.044-.004-.062-.003h-.002c-.025 0-.048 0-.068.002a.946.946 0 0 0-.062.008h-.003c-.048.008-.092.017-.137.017h-.004c-.044 0-.084-.009-.132-.016l-.01-.001c-.015-.002-.039-.002-.057-.003a1.173 1.173 0 0 0-.066-.004h-.001c-.019 0-.03-.004-.053-.003l-.01.001c-.018.001-.042.005-.062.007l-.023.003c-.079.01-.171.027-.295.063l-.029.001c-.017 0-.033 0-.052.002.019.002.031.006.048.009a.5.5 0 0 1 .351.191l.01.01a.317.317 0 0 0 .037.036c.008.007.019.012.028.018a.213.213 0 0 0 .064.033.915.915 0 0 0 .254.039H50c.05 0 .087-.005.124-.009a.568.568 0 0 0 .133-.031c.014-.006.026-.011.038-.018a.233.233 0 0 0 .026-.017c.009-.006.02-.011.027-.018a.444.444 0 0 0 .038-.037l.01-.01a.497.497 0 0 1 .344-.188c.02-.003.034-.008.056-.01-.024-.002-.039 0-.06-.001-.008.002-.013.003-.019.002zm-.256.046a.456.456 0 0 0-.071.046l-.032.026-.033.03a.107.107 0 0 1-.016.014c-.014.013-.032.024-.049.035l-.003.002a.364.364 0 0 1-.13.053.652.652 0 0 1-.127.012h-.004c-.06 0-.092-.015-.132-.025-.045-.011-.092-.022-.122-.041l-.004-.003a.343.343 0 0 1-.047-.036l-.017-.013c-.01-.009-.024-.016-.034-.025-.009-.008-.021-.014-.03-.022-.024-.02-.046-.041-.078-.057a.497.497 0 0 0-.234-.044c.108-.022.195-.03.266-.028.016 0 .027.004.041.005l.063.007.034.004.029.004a.318.318 0 0 1 .033.01l.061.018.031.009a.487.487 0 0 0 .139.023h.004a.503.503 0 0 0 .174-.033.89.89 0 0 1 .061-.017l.034-.01.029-.004.034-.004a.607.607 0 0 1 .063-.007l.032-.004c.077-.003.168.003.288.029a.513.513 0 0 0-.253.046z" fill="#903410"/><path d="M50.312 51.915c-.018-.019-.04-.031-.061-.046a.402.402 0 0 0-.129-.065c-.04-.012-.079-.025-.122-.025-.047 0-.089.013-.131.026a.413.413 0 0 0-.121.064c-.021.015-.043.028-.061.047a.46.46 0 0 0-.059.087.424.424 0 0 0-.061.208c.01-.041.045-.066.065-.101.018-.032.034-.066.059-.092.021-.022.035-.045.06-.062.035-.025.08-.029.122-.042.044-.014.08-.044.127-.044.044 0 .078.029.118.041.045.013.092.019.13.045.025.017.039.039.06.06.026.027.041.06.059.093.02.036.055.061.065.102a.428.428 0 0 0-.061-.209c-.017-.03-.034-.062-.059-.087z" fill="#903410"/><path fill="#903410" d="M48.057 49.327h.001-.001z"/><path d="M48.44 49.078c.021-.011.041-.027.062-.037.003-.002.007-.001.01-.003.019-.008.038-.009.057-.016.015-.006.029-.007.044-.013l.023-.007c.047-.016.094-.029.141-.041.121-.029.235-.039.349-.032l.011.001.057.004c.023.003.046.001.068.005.023.004.049-.001.071.005.031.008.056.028.086.04.044.017.083.045.123.069.014.009.03.015.043.024.019.013.043.019.062.034.013.01.031.013.043.024.009.012.009.026.017.039.012.017.014.037.024.055.028.046.045.095.064.143l.001.003c.01.025.025.048.033.073v.001l.007.015c.005.019.021.036.024.055l.002.004c.001.005.006.009.006.014v.005c.001.005-.002.011-.001.016.001.005-.002.01-.001.014.001.009-.003.018-.002.027V49.608l-.001.013c0 .007-.002.014-.001.02l-.002.026v.006l-.001.012v.008l-.001.019-.002.028c-.001.024-.001.047-.005.071-.002.014 0 .028-.003.042v.001l-.001.021v.003c-.003.017.001.033-.003.049l-.001.01-.001.01c-.004.015-.011.03-.015.044l-.005.009-.005.009c-.002.007-.008.013-.01.02l-.005.01-.009.018c-.004.011-.012.023-.017.034l-.006.011c-.011.025-.025.05-.038.076l-.003.005-.001.003-.018.036-.011.022-.007.014a.03.03 0 0 1-.004.008l-.003.007-.003.006c-.005.008-.007.017-.013.025l-.003.006-.009.018-.001.002-.002.005c-.008.012-.01.024-.019.037l-.009.018c-.005.007-.005.014-.01.021.003 0 .008.005.011.006l.004.002c.011.003.022.011.035.018.009.005.016.006.024.012l.012.006c.003.002.007.002.009.005l.001-.003.002-.007.004-.011c.01-.02.012-.041.022-.062v-.001l.002-.004c.008-.018.011-.036.019-.054l.001-.002.001-.004.008-.024.01-.029.004-.011.019-.053.001-.003.002-.006.018-.052a.098.098 0 0 0 .005-.016l.003-.01.011-.032.004-.012.004-.012c.003-.013.01-.026.013-.039l.003-.009.003-.009c.002-.009.007-.018.009-.026l.003-.009.003-.009c.002-.009.008-.019.01-.028l.003-.01.001-.012c.004-.023-.003-.045 0-.068v-.002-.019V49.786v-.024-.012-.055-.009-.033-.003-.022-.005-.06-.002c-.001-.022.002-.044 0-.066v-.012-.005c-.002-.017.003-.035 0-.052-.001-.009.002-.019 0-.028-.002-.011.002-.022 0-.032-.003-.019-.011-.037-.015-.056l-.003-.011-.001-.005c-.006-.026-.014-.052-.022-.078-.009-.032-.015-.065-.027-.097-.003-.009-.004-.019-.008-.028-.018-.015-.037-.025-.056-.039a.942.942 0 0 0-.065-.045c-.02-.014-.04-.03-.061-.042l-.062-.034a1.374 1.374 0 0 0-.187-.087c-.014-.005-.029-.006-.043-.011-.027-.009-.055-.014-.083-.021-.024-.006-.048-.014-.072-.018a.8.8 0 0 0-.048-.008l-.022-.001c-.023-.002-.045-.002-.068-.002-.033-.001-.066-.005-.099-.003a1.037 1.037 0 0 0-.431.123c-.02.01-.04.016-.059.028-.01.006-.019.016-.029.022l-.021.016-.038.029-.059.045a1.489 1.489 0 0 0-.271.282l-.005.006.007-.005c.078-.067.163-.109.245-.16.057-.031.099-.066.143-.088z" fill="#903410"/><path d="M48.686 49.301c.015-.005.033-.005.048-.009a.765.765 0 0 1 .072-.014c.025-.004.046-.012.073-.014.015-.001.026-.008.041-.008h.002c.046 0 .091.006.137.009.026.002.053 0 .079.005l.002.001c.046.01.092.041.138.067.026.015.052.016.077.038l.005.004c.036.03.061.046.091.067l.019.014c.039.027.073.052.1.067.023.013.046.027.062.034l.005.003.004.002.002.001c.003.002.004-.002.006-.002.023.007.038-.003.045-.023.006-.017.008-.037-.003-.047-.009-.009-.032-.012-.056-.018-.011-.003-.022-.011-.037-.016-.006-.002-.018-.012-.025-.015a.541.541 0 0 1-.072-.042c-.019-.012-.029-.011-.051-.03l-.037-.03a1.273 1.273 0 0 0-.092-.068l-.025-.015c-.019-.011-.038-.023-.059-.032a.588.588 0 0 0-.113-.032c-.038-.007-.088-.009-.138-.011-.023-.001-.039-.004-.065-.004l-.013.002c-.033.001-.057.013-.088.017-.011.001-.02.004-.031.006a.62.62 0 0 0-.042.008c-.024.005-.05.007-.072.014-.035.01-.072.016-.103.03a.845.845 0 0 0-.353.277c-.013.025-.027.051-.018.055.01.005.034-.014.061-.036l.116-.091a.998.998 0 0 1 .308-.164z" fill="#903410"/><path d="M49.311 49.892l.011-.004.036-.014c.014-.007.031-.01.044-.017l.016-.01.011-.007.023-.015.004-.003.054-.035.02-.013c.014-.01.021-.017.031-.026a.185.185 0 0 0 .05-.054c.001-.003.003-.005.003-.008.002-.013-.004-.021-.02-.021-.008 0-.022.009-.03.012l-.025.01c-.009.004-.015.004-.025.01l-.032.016-.006.003-.05.027-.07.038-.051.028-.007.002c-.019.009-.044.014-.065.021l-.033.011a.747.747 0 0 1-.26.026c-.039-.003-.086-.014-.13-.021-.036-.006-.07-.01-.109-.019a2.73 2.73 0 0 1-.283-.09c-.026-.01-.047-.014-.075-.025.015.012.03.016.046.026.042.03.083.049.125.072.026.014.052.033.077.044a.99.99 0 0 0 .126.049.945.945 0 0 0 .257.049c.023.001.042-.003.064-.004a.737.737 0 0 0 .256-.05l.017-.008z" fill="#903410"/><metadata xmlns:d="https://loading.io/stock/"><d:name>argentina</d:name><d:tags>argentina,national flag,country,nation symbol</d:tags><d:license>by</d:license><d:slug>n1vxls</d:slug></metadata></svg>